<svg width="1200" height="630" viewBox="0 0 1200 630" xmlns="http://www.w3.org/2000/svg" role="img" aria-labelledby="title desc">
  <title id="title">FX Monitor</title>
  <desc id="desc">Project thumbnail for FX Monitor</desc>
  <defs>
    <linearGradient id="bg" x1="0" y1="0" x2="1" y2="1">
      <stop offset="0%" stop-color="#0b1020"/>
      <stop offset="50%" stop-color="#13223b"/>
      <stop offset="100%" stop-color="#1f3b5f"/>
    </linearGradient>
    <linearGradient id="line" x1="0" y1="0" x2="1" y2="0">
      <stop offset="0%" stop-color="#f59e0b"/>
      <stop offset="100%" stop-color="#22d3ee"/>
    </linearGradient>
  </defs>

  <rect width="1200" height="630" fill="url(#bg)"/>
  <g opacity="0.15" stroke="#ffffff" stroke-width="1">
    <path d="M0 100 H1200"/>
    <path d="M0 200 H1200"/>
    <path d="M0 300 H1200"/>
    <path d="M0 400 H1200"/>
    <path d="M0 500 H1200"/>
    <path d="M180 0 V630"/>
    <path d="M360 0 V630"/>
    <path d="M540 0 V630"/>
    <path d="M720 0 V630"/>
    <path d="M900 0 V630"/>
    <path d="M1080 0 V630"/>
  </g>

  <polyline
    points="120,430 250,390 360,410 500,330 640,350 770,260 930,290 1080,210"
    fill="none"
    stroke="url(#line)"
    stroke-width="12"
    stroke-linecap="round"
    stroke-linejoin="round"
  />

  <circle cx="770" cy="260" r="14" fill="#f59e0b"/>
  <circle cx="1080" cy="210" r="16" fill="#22d3ee"/>

  <text x="120" y="180" fill="#dbeafe" font-family="Segoe UI, Arial, sans-serif" font-size="64" font-weight="700">
    FX Monitor
  </text>
  <text x="120" y="236" fill="#93c5fd" font-family="Segoe UI, Arial, sans-serif" font-size="28">
    ECB exchange rates • Static JSON pipeline • React + TypeScript
  </text>
</svg>
