<svg width="1200" height="630" viewBox="0 0 1200 630" xmlns="http://www.w3.org/2000/svg" role="img" aria-labelledby="title desc">
  <title id="title">Music Insights Hub</title>
  <desc id="desc">Project thumbnail for Music Insights Hub</desc>
  <defs>
    <linearGradient id="bg2" x1="0" y1="0" x2="1" y2="1">
      <stop offset="0%" stop-color="#111827"/>
      <stop offset="50%" stop-color="#1e293b"/>
      <stop offset="100%" stop-color="#0f172a"/>
    </linearGradient>
    <linearGradient id="line" x1="0" y1="0" x2="1" y2="0">
      <stop offset="0%" stop-color="#ff6b2c"/>
      <stop offset="100%" stop-color="#1f6d75"/>
    </linearGradient>
  </defs>
  <rect width="1200" height="630" fill="url(#bg2)"/>
  <g opacity="0.18" stroke="#ffffff" stroke-width="1">
    <path d="M0 90 H1200"/>
    <path d="M0 180 H1200"/>
    <path d="M0 270 H1200"/>
    <path d="M0 360 H1200"/>
    <path d="M0 450 H1200"/>
    <path d="M0 540 H1200"/>
    <path d="M120 0 V630"/>
    <path d="M240 0 V630"/>
    <path d="M360 0 V630"/>
    <path d="M480 0 V630"/>
    <path d="M600 0 V630"/>
    <path d="M720 0 V630"/>
    <path d="M840 0 V630"/>
    <path d="M960 0 V630"/>
    <path d="M1080 0 V630"/>
  </g>
  <path d="M90 444 C 194 344, 274 376, 354 306 C 455 217, 566 295, 666 248 C 774 197, 885 277, 1003 174"
    fill="none" stroke="url(#line)" stroke-width="12" stroke-linecap="round"/>
  <g fill="#ff6b2c">
    <circle cx="354" cy="306" r="10"/>
    <circle cx="666" cy="248" r="10"/>
    <circle cx="1003" cy="174" r="10"/>
  </g>
  <text x="88" y="110" fill="#9fb5cb" font-size="34" font-family="Segoe UI, Arial, sans-serif" letter-spacing="4">FULLSTACK ANALYTICS APP</text>
  <text x="86" y="210" fill="#ffffff" font-size="84" font-weight="700" font-family="Segoe UI, Arial, sans-serif">MUSIC INSIGHTS HUB</text>
  <text x="90" y="270" fill="#dbe7f5" font-size="30" font-family="Segoe UI, Arial, sans-serif">Spring Boot API + React Data Visualization</text>
</svg>
